<svg width="36" height="30" viewBox="0 0 36 30" fill="none" xmlns="http://www.w3.org/2000/svg">
<path d="M12.5087 29.6853C12.3358 29.6854 12.1652 29.6455 12.0101 29.5689C11.8551 29.4923 11.7198 29.381 11.6147 29.2436L0.230472 14.3523C0.0498385 14.1155 -0.0294941 13.8167 0.00987298 13.5214C0.0492401 13.2262 0.204093 12.9586 0.440472 12.7773L5.41672 8.97183C5.65366 8.79128 5.95253 8.71207 6.24779 8.75158C6.54305 8.79108 6.81059 8.94608 6.99172 9.18258L13.0727 17.1326L28.7395 0.357328C28.9431 0.139229 29.225 0.0109346 29.5231 0.000667102C29.8213 -0.00960042 30.1114 0.0989996 30.3295 0.302578L34.9045 4.57758C35.1226 4.78117 35.2509 5.06306 35.2611 5.36124C35.2714 5.65942 35.1628 5.94947 34.9592 6.16758L17.596 24.7616C17.3917 24.977 17.1106 25.103 16.8139 25.112C16.5172 25.1211 16.2289 25.0125 16.0119 24.81C15.7949 24.6074 15.6667 24.3273 15.6554 24.0306C15.644 23.734 15.7504 23.4449 15.9512 23.2263L32.5502 5.45508L29.6155 2.71458L13.8055 19.6428C13.6938 19.7624 13.5575 19.8561 13.4059 19.9175C13.2543 19.979 13.0912 20.0066 12.9278 19.9986C12.7645 19.9905 12.6048 19.9469 12.46 19.8708C12.3152 19.7948 12.1888 19.688 12.0895 19.5581L5.88697 11.4401L2.69797 13.8791L13.4012 27.8771C13.5286 28.0437 13.6068 28.2425 13.6272 28.4513C13.6475 28.66 13.6091 28.8702 13.5163 29.0582C13.4235 29.2463 13.2799 29.4046 13.1019 29.5155C12.9239 29.6263 12.7184 29.6851 12.5087 29.6853Z" fill="#286659"/>
</svg>
