<svg width="36" height="37" viewBox="0 0 36 37" fill="none" xmlns="http://www.w3.org/2000/svg">
<path d="M35.7604 19.1551C35.8107 19.0407 35.8489 18.9152 35.8748 18.7787C35.9008 18.6422 35.9177 18.5131 35.9258 18.3914C35.9338 18.2697 35.9254 18.1466 35.9006 18.0218C35.8758 17.8971 35.8394 17.773 35.7913 17.6494C35.7433 17.5258 35.6863 17.4097 35.6203 17.301C35.5543 17.1923 35.4746 17.089 35.3812 16.9909C35.2878 16.8929 35.1901 16.8044 35.0883 16.7255C34.9865 16.6465 34.8688 16.5777 34.7353 16.519L31.6176 15.147C32.8724 14.6749 33.7683 13.8287 34.3053 12.6083C34.557 12.0362 34.6829 11.4657 34.6829 10.8966C34.683 10.3276 34.4868 9.75191 34.0943 9.16953C33.7019 8.58714 33.1053 8.11974 32.3044 7.76731C31.9802 7.62466 31.6366 7.51328 31.2735 7.43318C30.9105 7.35307 30.547 7.31263 30.1832 7.31185C29.8193 7.31108 29.454 7.3267 29.0871 7.35872C28.7202 7.39074 28.3523 7.45079 27.9835 7.53888C27.6147 7.62696 27.2534 7.72401 26.8995 7.83002C26.5455 7.93603 26.1927 8.0653 25.8411 8.21784C25.4895 8.37038 25.1563 8.51967 24.8417 8.66573C24.527 8.81179 24.213 8.96948 23.8995 9.1388C23.586 9.30812 23.3068 9.46409 23.0619 9.60672C22.8171 9.74934 22.5776 9.9057 22.3434 10.0758C22.2115 9.28937 22.0357 8.51211 21.816 7.744C21.5964 6.97589 21.2892 6.13512 20.8945 5.2217C20.4998 4.30828 19.986 3.48466 19.3529 2.75086C18.7198 2.01706 18.0124 1.47814 17.2306 1.1341C16.4297 0.781669 15.682 0.657499 14.9875 0.761588C14.293 0.865677 13.736 1.10993 13.3164 1.49434C12.8969 1.87876 12.5613 2.357 12.3095 2.92906C11.7725 4.14946 11.7591 5.39543 12.2693 6.66698L9.09439 5.26985C8.57954 5.04329 8.06811 5.02877 7.5601 5.22631C7.05209 5.42384 6.68481 5.78004 6.45824 6.2949L4.05418 11.7581L5.91338 12.5762L0.664709 24.5037C0.446539 24.9995 0.434124 25.5062 0.627463 26.0237C0.820802 26.5412 1.1749 26.9133 1.68976 27.1399L23.6283 36.7939C24.1432 37.0204 24.6567 37.0302 25.1689 36.8231C25.6811 36.6161 26.0463 36.2646 26.2645 35.7688L31.5131 23.8414L33.3437 24.6469L35.7604 19.1551ZM31.4988 9.59791C32.5858 10.0762 32.911 10.8111 32.4747 11.8027C32.1894 12.451 31.7205 12.9218 31.0679 13.2151C30.4154 13.5084 29.7098 13.6246 28.9512 13.564C28.1927 13.5033 27.4416 13.3093 26.6979 12.9821L23.6087 11.6227C24.206 11.2482 24.8166 10.9081 25.4406 10.6022C26.0645 10.2964 26.7409 10.0136 27.4697 9.75392C28.1986 9.49423 28.9188 9.34456 29.6305 9.30493C30.3421 9.26529 30.9649 9.36295 31.4988 9.59791ZM16.425 2.9647C17.4547 3.41782 18.2932 4.34442 18.9403 5.74449C19.5875 7.14457 20.0567 8.62568 20.348 10.1878L17.2589 8.82847C16.0957 8.31661 15.1823 7.57326 14.5187 6.59842C13.8552 5.62358 13.7332 4.65944 14.1527 3.70601C14.5555 2.79071 15.2515 2.52797 16.2408 2.91778C16.3064 2.92388 16.3678 2.93952 16.425 2.9647ZM32.3187 22.0108L20.4198 16.7747L22.0309 13.1135L33.9298 18.3496L32.3187 22.0108ZM8.30143 7.07184L20.2003 12.3079L18.5892 15.9691L6.69033 10.733L8.30143 7.07184ZM7.74398 13.3818L17.7837 17.7997L12.535 29.7272L2.49531 25.3093L7.74398 13.3818ZM24.4339 34.9633L14.3656 30.5328L19.6143 18.6053L29.6825 23.0358L24.4339 34.9633Z" fill="#FF9D2B" fill-opacity="0.6"/>
</svg>
