<svg width="58" height="35" viewBox="0 0 58 35" fill="none" xmlns="http://www.w3.org/2000/svg">
<rect y="0.40332" width="58" height="33.67" rx="15" fill="#F4F3F4"/>
<g clip-path="url(#clip0)">
<path d="M14.1831 17.6317L23.5581 25.9766C23.8023 26.194 24.1978 26.194 24.4419 25.9766C24.686 25.7593 24.686 25.4073 24.4419 25.19L16.1337 17.7947L43.375 17.7947C43.7204 17.7947 44 17.5459 44 17.2384C44 16.9308 43.7204 16.682 43.375 16.682L16.1337 16.682L24.4419 9.28679C24.686 9.06945 24.686 8.7174 24.4419 8.50012C24.3198 8.39148 24.1599 8.33714 24 8.33714C23.8401 8.33714 23.6802 8.39148 23.558 8.50012L14.183 16.8451C13.9389 17.0623 13.9389 17.4144 14.1831 17.6317Z" fill="#5A78C3"/>
</g>
<defs>
<clipPath id="clip0">
<rect x="44" y="30.5903" width="30" height="26.7038" rx="13.3519" transform="rotate(-180 44 30.5903)" fill="white"/>
</clipPath>
</defs>
</svg>
