<svg width="16" height="17" viewBox="0 0 16 17" fill="none" xmlns="http://www.w3.org/2000/svg">
<path d="M15.4575 13.246L13.0838 10.8723C12.4175 10.206 11.3372 10.206 10.6709 10.8723L10.2995 11.2437C10.0006 11.5418 9.79295 11.919 9.70082 12.331C8.89623 12.346 7.98632 12.2092 7.20807 11.7043C6.73005 11.349 6.27865 10.9592 5.85748 10.538C5.50169 10.1824 5.16808 9.80532 4.85854 9.40882C4.25201 8.59395 4.09195 7.60504 4.10814 6.73832C4.52012 6.64621 4.8973 6.43854 5.19545 6.13966L5.56682 5.76829C6.23314 5.10198 6.23314 4.02166 5.56682 3.35532L3.1931 0.981602C2.74889 0.537383 2.02867 0.537383 1.58448 0.981602L1.17695 1.38923C0.654511 1.91166 0.387073 2.5921 0.373167 3.27676C0.239386 4.72129 0.516042 6.31148 1.17326 7.87545C1.6072 8.90807 2.20298 9.91635 2.92857 10.8535C2.93773 10.8658 2.94642 10.8782 2.9557 10.8904L2.95676 10.8896C3.32722 11.3648 3.72663 11.8168 4.15273 12.2429C4.5931 12.6835 5.06099 13.0959 5.55357 13.4773L5.54882 13.4836C5.63089 13.5458 5.7146 13.6059 5.79985 13.6636C7.87051 15.1952 10.2109 16.0557 12.3888 16.0555C12.516 16.0555 12.6429 16.0519 12.769 16.046C13.5802 16.1457 14.4273 15.885 15.05 15.2623L15.4576 14.8547C15.9018 14.4104 15.9018 13.6902 15.4575 13.246Z" fill="url(#paint0_linear)"/>
<defs>
<linearGradient id="paint0_linear" x1="-0.935704" y1="16.0667" x2="12.5025" y2="16.8356" gradientUnits="userSpaceOnUse">
<stop stop-color="#F9EF98"/>
<stop offset="1" stop-color="#FDB776"/>
</linearGradient>
</defs>
</svg>
