<svg width="47" height="46" viewBox="0 0 47 46" fill="none" xmlns="http://www.w3.org/2000/svg">
<g clip-path="url(#clip0)" filter="url(#filter0_d)">
<path d="M23.5878 38.6075C32.6843 38.6075 40.0586 31.4875 40.0586 22.7046C40.0586 13.9217 32.6843 6.80176 23.5878 6.80176C14.4912 6.80176 7.11694 13.9217 7.11694 22.7046C7.11694 31.4875 14.4912 38.6075 23.5878 38.6075Z" fill="#4D76A1"/>
<path d="M34.2813 27.5723C34.2562 27.5204 34.2327 27.4775 34.2109 27.4429C33.8504 26.8221 33.1615 26.0603 32.1444 25.1568L32.1229 25.1362L32.1122 25.126L32.1014 25.1156H32.0904C31.6288 24.6949 31.3365 24.4122 31.2142 24.2673C30.9902 23.9915 30.94 23.7123 31.0625 23.4294C31.149 23.2157 31.4738 22.7642 32.0361 22.0746C32.332 21.709 32.5662 21.4161 32.7393 21.1955C33.9873 19.6093 34.5283 18.5959 34.3623 18.1544L34.2979 18.0514C34.2544 17.9893 34.1427 17.9325 33.9627 17.8806C33.782 17.8289 33.5514 17.8204 33.27 17.8548L30.1541 17.8754C30.1037 17.8582 30.0315 17.8599 29.9377 17.8806C29.844 17.9014 29.7969 17.9117 29.7969 17.9117L29.7427 17.9376L29.6996 17.9687C29.6636 17.9893 29.624 18.0255 29.5806 18.0772C29.5376 18.1288 29.5016 18.1894 29.4726 18.2582C29.1335 19.0927 28.7477 19.8684 28.3149 20.5854C28.0479 21.013 27.8028 21.3837 27.5791 21.6974C27.3556 22.011 27.168 22.2422 27.0166 22.3904C26.8651 22.5386 26.7283 22.6575 26.6053 22.7472C26.4827 22.8369 26.3892 22.8748 26.3242 22.861C26.2593 22.8472 26.198 22.8333 26.1401 22.8195C26.0392 22.7574 25.9581 22.6729 25.8968 22.5661C25.8355 22.4592 25.7939 22.3247 25.7724 22.1627C25.7509 22.0005 25.7381 21.861 25.7345 21.7438C25.7311 21.6267 25.7326 21.4611 25.74 21.2472C25.7474 21.0335 25.7509 20.8887 25.7509 20.8128C25.7509 20.5507 25.7562 20.2663 25.7669 19.9594C25.7778 19.6527 25.7867 19.4095 25.7939 19.2305C25.8014 19.0512 25.8048 18.8615 25.8048 18.6614C25.8048 18.4615 25.7921 18.3046 25.7669 18.1908C25.7421 18.0771 25.7039 17.9667 25.6536 17.8597C25.6029 17.7528 25.5289 17.6702 25.4317 17.6116C25.3344 17.553 25.2134 17.5064 25.0694 17.4718C24.687 17.3891 24.2003 17.3443 23.6087 17.3374C22.2672 17.3236 21.4052 17.4064 21.0228 17.5857C20.8714 17.6615 20.7343 17.765 20.6117 17.8959C20.4818 18.0477 20.4637 18.1306 20.5576 18.1442C20.9904 18.2061 21.2968 18.3545 21.4772 18.5888L21.5421 18.7131C21.5927 18.8027 21.6432 18.9614 21.6936 19.189C21.7441 19.4164 21.7767 19.6681 21.791 19.9438C21.827 20.4473 21.827 20.8782 21.791 21.2368C21.7548 21.5954 21.7207 21.8747 21.6881 22.0746C21.6556 22.2746 21.607 22.4367 21.5421 22.5607C21.4772 22.6848 21.4339 22.7607 21.4122 22.7882C21.3905 22.8157 21.3726 22.8332 21.3581 22.8399C21.2644 22.8743 21.167 22.8918 21.066 22.8918C20.9649 22.8918 20.8425 22.8434 20.6982 22.7469C20.554 22.6502 20.4043 22.5177 20.2493 22.3486C20.0941 22.1796 19.9193 21.9435 19.7244 21.6401C19.5297 21.3368 19.3277 20.9781 19.1186 20.5644L18.9455 20.2644C18.8374 20.0714 18.6896 19.7903 18.502 19.4215C18.3143 19.0525 18.1484 18.6955 18.0043 18.3507C17.9466 18.206 17.8601 18.0957 17.7447 18.0199L17.6905 17.9888C17.6545 17.9611 17.5968 17.932 17.5175 17.9009C17.4381 17.8698 17.3552 17.8474 17.2686 17.8337L14.3041 17.8543C14.0012 17.8543 13.7957 17.9198 13.6874 18.0509L13.6441 18.1128C13.6225 18.1474 13.6116 18.2025 13.6116 18.2784C13.6116 18.3543 13.6332 18.4474 13.6765 18.5577C14.1093 19.53 14.5799 20.4677 15.0884 21.371C15.5968 22.2743 16.0387 23.0021 16.4137 23.5534C16.7887 24.1051 17.171 24.6258 17.5605 25.1153C17.95 25.6048 18.2079 25.9187 18.3341 26.0565C18.4604 26.1946 18.5596 26.2979 18.6317 26.3668L18.9021 26.615C19.0752 26.7805 19.3294 26.9787 19.6649 27.2097C20.0004 27.4407 20.3718 27.6683 20.7793 27.8926C21.1869 28.1165 21.6611 28.2993 22.2021 28.4405C22.743 28.582 23.2696 28.6388 23.7818 28.6114H25.026C25.2783 28.5905 25.4695 28.5148 25.5993 28.3839L25.6424 28.332C25.6713 28.2909 25.6985 28.2268 25.7235 28.1409C25.7488 28.0546 25.7614 27.9597 25.7614 27.8563C25.754 27.5599 25.7776 27.2927 25.8317 27.0549C25.8856 26.817 25.9469 26.6379 26.0158 26.517C26.0845 26.3965 26.162 26.2946 26.2483 26.2121C26.3348 26.1294 26.3964 26.0792 26.4324 26.0621C26.4684 26.0446 26.4972 26.0329 26.5187 26.0258C26.6918 25.9707 26.8955 26.024 27.1301 26.1862C27.3647 26.3484 27.5846 26.5485 27.7903 26.7862C27.9957 27.0242 28.2429 27.2912 28.5312 27.5878C28.8199 27.8843 29.0724 28.1048 29.2887 28.2497L29.5048 28.3738C29.6493 28.4567 29.8369 28.5326 30.0677 28.6016C30.2981 28.6704 30.5002 28.6877 30.6734 28.6533L33.4431 28.6119C33.7171 28.6119 33.9301 28.5685 34.0814 28.4825C34.2329 28.3962 34.3228 28.3014 34.3519 28.198C34.3809 28.0948 34.3824 27.9774 34.3574 27.8463C34.3318 27.7154 34.3065 27.624 34.2813 27.5723Z" fill="white"/>
</g>
<defs>
<filter id="filter0_d" x="0.423278" y="-0.576722" width="46.2124" height="46.2124" filterUnits="userSpaceOnUse" color-interpolation-filters="sRGB">
<feFlood flood-opacity="0" result="BackgroundImageFix"/>
<feColorMatrix in="SourceAlpha" type="matrix" values="0 0 0 0 0 0 0 0 0 0 0 0 0 0 0 0 0 0 127 0"/>
<feOffset/>
<feGaussianBlur stdDeviation="3.28836"/>
<feColorMatrix type="matrix" values="0 0 0 0 0 0 0 0 0 0 0 0 0 0 0 0 0 0 0.5 0"/>
<feBlend mode="normal" in2="BackgroundImageFix" result="effect1_dropShadow"/>
<feBlend mode="normal" in="SourceGraphic" in2="effect1_dropShadow" result="shape"/>
</filter>
<clipPath id="clip0">
<rect width="33.059" height="33.059" fill="white" transform="translate(7 6)"/>
</clipPath>
</defs>
</svg>
