<svg width="26" height="51" viewBox="0 0 26 51" fill="none" xmlns="http://www.w3.org/2000/svg">
<path d="M24.38 0.999997V50H10.52V11.71H1.42V0.999997H24.38Z" fill="#B9C8ED"/>
<path d="M24.38 0.999997H25.38V-3.33786e-06H24.38V0.999997ZM24.38 50V51H25.38V50H24.38ZM10.52 50H9.52V51H10.52V50ZM10.52 11.71H11.52V10.71H10.52V11.71ZM1.42 11.71H0.42V12.71H1.42V11.71ZM1.42 0.999997V-3.33786e-06H0.42V0.999997H1.42ZM23.38 0.999997V50H25.38V0.999997H23.38ZM24.38 49H10.52V51H24.38V49ZM11.52 50V11.71H9.52V50H11.52ZM10.52 10.71H1.42V12.71H10.52V10.71ZM2.42 11.71V0.999997H0.42V11.71H2.42ZM1.42 2H24.38V-3.33786e-06H1.42V2Z" fill="#29458C"/>
</svg>
