<svg width="113" height="113" viewBox="0 0 113 113" fill="none" xmlns="http://www.w3.org/2000/svg">
<g clip-path="url(#clip0)">
<path d="M56.5001 113C87.6941 113 112.982 87.7043 112.982 56.5001C112.982 25.296 87.6941 0 56.5001 0C25.3061 0 0.0183105 25.296 0.0183105 56.5001C0.0183105 87.7043 25.3061 113 56.5001 113Z" fill="#FFE667"/>
<path d="M56.4999 0C56.4743 0 56.4489 0.000882704 56.4233 0.000882704V112.999C56.4489 112.999 56.4743 113 56.4999 113C87.694 113 112.982 87.7041 112.982 56.4999C112.982 25.2956 87.694 0 56.4999 0Z" fill="#FDD35A"/>
<path d="M24.5669 57.6236L47.4122 80.4688C48.4085 81.4652 50.0241 81.4652 51.0204 80.4688L88.5259 42.9634C89.5222 41.967 89.5222 40.3515 88.5259 39.3551L81.6992 32.5285C80.7029 31.5322 79.0873 31.5322 78.091 32.5285L50.8117 59.8074C49.8153 60.8037 48.1998 60.8037 47.2034 59.8074L34.9786 47.5826C34.0019 46.6059 32.4252 46.5838 31.4215 47.5327L24.6181 53.9652C23.5739 54.9527 23.5507 56.6074 24.5669 57.6236V57.6236Z" fill="#FEFEFE"/>
<path d="M81.6991 32.5266C80.7028 31.5302 79.0872 31.5302 78.0909 32.5266L56.4233 54.1941V75.0641L88.5257 42.9617C89.5221 41.9653 89.5221 40.3497 88.5257 39.3532L81.6991 32.5266Z" fill="#FFFCEC"/>
</g>
<defs>
<clipPath id="clip0">
<rect width="113" height="113" fill="white"/>
</clipPath>
</defs>
</svg>
