<svg width="264" height="264" viewBox="0 0 264 264" fill="none" xmlns="http://www.w3.org/2000/svg">
<path d="M132 264C204.902 264 264 204.902 264 132C264 59.0984 204.902 0 132 0C59.0984 0 0 59.0984 0 132C0 204.902 59.0984 264 132 264Z" fill="#F6CC71"/>
<path d="M236.689 51.6166V168.414C236.674 173.436 232.608 177.502 227.586 177.517H36.4139C31.3922 177.502 27.325 173.436 27.3105 168.414V51.6166C52.2885 19.0755 90.9779 0 132 0C173.022 0 211.711 19.0755 236.689 51.6166Z" fill="#DEDEDE"/>
<path d="M204.827 109.242H59.1725C56.6589 109.242 54.6206 111.28 54.6206 113.794C54.6206 116.308 56.6584 118.346 59.1725 118.346H204.828C207.341 118.346 209.38 116.308 209.38 113.794C209.38 111.28 207.341 109.242 204.827 109.242Z" fill="#7F6E5D"/>
<path d="M204.827 91.0352H59.1725C56.6589 91.0352 54.6206 93.0729 54.6206 95.5871C54.6206 98.1008 56.6584 100.139 59.1725 100.139H204.828C207.341 100.139 209.38 98.1013 209.38 95.5871C209.379 93.0729 207.341 91.0352 204.827 91.0352Z" fill="#7F6E5D"/>
<path d="M204.827 72.8281H59.1725C56.6589 72.8281 54.6206 74.8659 54.6206 77.3801C54.6206 79.8943 56.6584 81.932 59.1725 81.932H204.828C207.341 81.932 209.38 79.8943 209.38 77.3801C209.38 74.8659 207.341 72.8281 204.827 72.8281Z" fill="#7F6E5D"/>
<path d="M204.827 54.6211H59.1725C56.6589 54.6211 54.6206 56.6588 54.6206 59.173C54.6206 61.6872 56.6584 63.725 59.1725 63.725H204.828C207.341 63.725 209.38 61.6872 209.38 59.173C209.38 56.6588 207.341 54.6211 204.827 54.6211Z" fill="#7F6E5D"/>
<path d="M59.1725 45.5179H204.828C207.341 45.5179 209.38 43.4802 209.38 40.966C209.38 38.4523 207.342 36.4141 204.828 36.4141H59.1725C56.6589 36.4141 54.6206 38.4518 54.6206 40.966C54.6206 43.4802 56.6584 45.5179 59.1725 45.5179Z" fill="#7F6E5D"/>
<path d="M181.844 144.46C181.063 142.073 178.498 140.767 176.108 141.54C161.884 146.481 147.036 149.399 132 150.208C127.059 150.208 122.863 150.012 119.307 149.687C119.672 149.307 120.017 148.908 120.341 148.492C123.122 144.907 124.019 140.207 122.754 135.85C121.968 132.882 120.028 130.351 117.367 128.82C114.705 127.289 111.542 126.885 108.581 127.698C100.138 129.12 91.199 136.29 91.8699 144.304C92.0225 146.283 92.7418 148.177 93.9411 149.759C91.4641 150.042 88.9736 150.192 86.4806 150.208C83.9669 150.208 81.9291 152.246 81.9302 154.761C81.9312 157.275 83.969 159.312 86.4831 159.311C93.1357 159.265 99.7564 158.385 106.19 156.693C114.648 158.655 123.321 159.535 132 159.311C148 158.552 163.806 155.483 178.927 150.198C180.075 149.825 181.028 149.01 181.575 147.934C182.121 146.858 182.219 145.608 181.844 144.46ZM113.153 142.905C111.251 144.941 108.828 146.418 106.148 147.176C102.321 145.816 101.009 144.34 100.942 143.545C100.776 141.567 105.147 137.508 110.095 136.677C110.565 136.593 111.041 136.549 111.519 136.544C113.533 136.544 113.797 137.57 113.935 138.108C114.513 139.736 114.217 141.545 113.153 142.905Z" fill="#2C3E50"/>
</svg>
