<svg width="264" height="264" viewBox="0 0 264 264" fill="none" xmlns="http://www.w3.org/2000/svg">
<g opacity="0.9">
<path d="M132 264C204.902 264 264 204.902 264 132C264 59.0984 204.902 0 132 0C59.0984 0 0 59.0984 0 132C0 204.902 59.0984 264 132 264Z" fill="#F6C863"/>
<path d="M106.873 149.958C121.339 164.425 137.482 171.835 142.847 166.469L149.62 159.695C150.847 158.468 152.304 157.494 153.908 156.83C155.512 156.166 157.23 155.824 158.966 155.824C160.702 155.824 162.421 156.166 164.024 156.83C165.628 157.494 167.085 158.468 168.312 159.695L183.266 174.649C184.984 176.367 186.347 178.407 187.277 180.652C188.207 182.897 188.686 185.303 188.686 187.733C188.686 190.163 188.207 192.569 187.277 194.814C186.347 197.059 184.984 199.099 183.266 200.818L172.747 211.336C159.716 224.367 120.667 206.446 85.5258 171.305C67.9636 153.727 54.6976 135.181 47.4541 119.396C40.2106 103.612 38.9813 90.5934 45.503 84.0759L56.0217 73.5572C57.7399 71.8387 59.7797 70.4755 62.0248 69.5455C64.2699 68.6154 66.6761 68.1367 69.1062 68.1367C71.5363 68.1367 73.9426 68.6154 76.1876 69.5455C78.4327 70.4755 80.4725 71.8387 82.1907 73.5572L97.1438 88.5103C98.3713 89.7376 99.345 91.1946 100.009 92.7983C100.674 94.4019 101.016 96.1207 101.016 97.8565C101.016 99.5923 100.674 101.311 100.009 102.915C99.345 104.518 98.3713 105.975 97.1438 107.203L90.3706 113.976C84.9978 119.349 92.4001 135.49 106.873 149.958Z" fill="#575B6D"/>
<path d="M214.5 63.5917V111.745C214.501 112.654 214.322 113.554 213.974 114.394C213.626 115.234 213.116 115.997 212.474 116.64C211.831 117.283 211.068 117.793 210.228 118.14C209.388 118.488 208.488 118.667 207.579 118.667H156.544L135.583 136.99V118.665H128.364C127.455 118.665 126.555 118.486 125.715 118.138C124.875 117.79 124.112 117.281 123.469 116.638C122.826 115.995 122.316 115.232 121.969 114.392C121.621 113.552 121.442 112.652 121.442 111.743V63.5917C121.442 62.6826 121.621 61.7824 121.969 60.9425C122.316 60.1026 122.826 59.3394 123.469 58.6967C124.112 58.0539 124.875 57.544 125.715 57.1963C126.555 56.8485 127.455 56.6697 128.364 56.6699H207.576C208.486 56.6694 209.386 56.848 210.226 57.1957C211.066 57.5433 211.83 58.0531 212.473 58.6959C213.116 59.3387 213.626 60.102 213.974 60.942C214.322 61.7821 214.501 62.6824 214.5 63.5917Z" fill="#EEEFEE"/>
<path d="M147.263 87.6666C147.263 88.9071 146.895 90.1197 146.206 91.1512C145.516 92.1826 144.537 92.9865 143.391 93.4612C142.245 93.9359 140.984 94.0601 139.767 93.8181C138.55 93.5761 137.433 92.9788 136.556 92.1016C135.678 91.2244 135.081 90.1069 134.839 88.8902C134.597 87.6735 134.721 86.4124 135.196 85.2664C135.671 84.1203 136.475 83.1407 137.506 82.4516C138.537 81.7624 139.75 81.3945 140.991 81.3945C141.814 81.394 142.63 81.5558 143.391 81.8709C144.153 82.1859 144.844 82.6478 145.427 83.2304C146.009 83.8129 146.471 84.5045 146.786 85.2657C147.101 86.0269 147.263 86.8428 147.263 87.6666Z" fill="#575B6D"/>
<path d="M174.246 87.6666C174.246 88.9071 173.878 90.1197 173.189 91.1512C172.5 92.1826 171.521 92.9865 170.374 93.4612C169.228 93.9359 167.967 94.0601 166.751 93.8181C165.534 93.5761 164.416 92.9788 163.539 92.1016C162.662 91.2244 162.065 90.1069 161.823 88.8902C161.581 87.6735 161.705 86.4124 162.18 85.2664C162.654 84.1203 163.458 83.1407 164.49 82.4516C165.521 81.7624 166.734 81.3945 167.974 81.3945C168.798 81.394 169.614 81.5558 170.375 81.8709C171.136 82.1859 171.828 82.6478 172.41 83.2304C172.993 83.8129 173.455 84.5045 173.77 85.2657C174.085 86.0269 174.247 86.8428 174.246 87.6666Z" fill="#575B6D"/>
<path d="M201.228 87.6666C201.228 88.9071 200.86 90.1197 200.171 91.1512C199.481 92.1826 198.502 92.9865 197.356 93.4612C196.21 93.9359 194.949 94.0601 193.732 93.8181C192.515 93.5761 191.398 92.9788 190.521 92.1016C189.643 91.2244 189.046 90.1069 188.804 88.8902C188.562 87.6735 188.686 86.4124 189.161 85.2664C189.636 84.1203 190.44 83.1407 191.471 82.4516C192.503 81.7624 193.715 81.3945 194.956 81.3945C195.779 81.394 196.595 81.5558 197.357 81.8709C198.118 82.1859 198.809 82.6478 199.392 83.2304C199.974 83.8129 200.436 84.5045 200.751 85.2657C201.066 86.0269 201.228 86.8428 201.228 87.6666Z" fill="#575B6D"/>
</g>
</svg>
