<svg width="264" height="264" viewBox="0 0 264 264" fill="none" xmlns="http://www.w3.org/2000/svg">
<path d="M132 264C204.902 264 264 204.902 264 132C264 59.0984 204.902 0 132 0C59.0984 0 0 59.0984 0 132C0 204.902 59.0984 264 132 264Z" fill="#676A7A"/>
<path d="M172.881 161.066H214.921V181.326H172.881V161.066Z" fill="#69B0EE"/>
<path d="M138.021 78.8398H158.495C159.476 78.8396 160.417 79.2274 161.112 79.9185L167.549 86.2875C167.899 86.6339 168.176 87.0461 168.366 87.5003C168.555 87.9544 168.653 88.4416 168.653 88.9337V112.199L138.021 78.8398Z" fill="#EF5261"/>
<path d="M174.382 122.553V179.247C174.381 182.872 172.941 186.348 170.378 188.911C167.815 191.474 164.339 192.914 160.714 192.916H79.8827C75.3502 192.916 70.8621 192.024 66.6746 190.289C62.4872 188.555 58.6825 186.012 55.4779 182.807C52.2734 179.601 49.7318 175.796 47.9983 171.608C46.2648 167.42 45.3734 162.932 45.375 158.4V122.852C45.3747 115.963 46.7315 109.141 49.3679 102.776C52.0042 96.4107 55.8685 90.6273 60.7401 85.7557C65.6117 80.8841 71.3951 77.0198 77.7602 74.3835C84.1253 71.7471 90.9473 70.3904 97.8367 70.3906H122.22C125.981 70.3895 129.706 71.1306 133.18 72.5714C136.654 74.0122 139.81 76.1244 142.467 78.7871L165.996 102.3C168.656 104.959 170.765 108.117 172.204 111.592C173.643 115.067 174.383 118.792 174.382 122.553Z" fill="#F6C863"/>
<path d="M174.382 161.18V179.247C174.381 182.872 172.941 186.348 170.378 188.911C167.815 191.474 164.339 192.914 160.714 192.916H79.8827C75.3502 192.916 70.8621 192.024 66.6746 190.289C62.4872 188.555 58.6825 186.012 55.4779 182.807C52.2734 179.601 49.7318 175.796 47.9983 171.608C46.2648 167.42 45.3734 162.932 45.375 158.4V122.852C45.3747 115.963 46.7315 109.141 49.3679 102.776C52.0042 96.4107 55.8685 90.6273 60.7401 85.7557C65.6117 80.8841 71.3951 77.0198 77.7602 74.3835C84.1253 71.7471 90.9473 70.3904 97.8367 70.3906H122.22C125.059 70.3913 127.883 70.8125 130.6 71.6405L123.868 91.6117C123.386 93.0355 122.47 94.2728 121.25 95.1499C120.029 96.0269 118.564 96.4997 117.061 96.5019H106.578C96.5812 96.5041 86.9949 100.477 79.9269 107.546C72.8589 114.615 68.888 124.202 68.8875 134.198C68.8835 141.177 70.7829 148.025 74.3812 154.005C77.9794 159.985 83.1404 164.87 89.3085 168.135C95.4767 171.4 102.418 172.921 109.387 172.534C116.355 172.147 123.086 169.867 128.855 165.94L134.887 161.18H174.382Z" fill="#EAB54E"/>
<path d="M218.625 160.412C218.625 158.685 217.225 157.285 215.498 157.285C213.771 157.285 212.372 158.685 212.372 160.412V186.701C212.372 188.427 213.771 189.827 215.498 189.827C217.225 189.827 218.625 188.427 218.625 186.701V160.412Z" fill="#EEEFEE"/>
<path d="M106.926 154.755C118.087 154.755 127.135 145.707 127.135 134.546C127.135 123.385 118.087 114.338 106.926 114.338C95.7654 114.338 86.7178 123.385 86.7178 134.546C86.7178 145.707 95.7654 154.755 106.926 154.755Z" fill="#575B6D"/>
</svg>
