<svg width="264" height="264" viewBox="0 0 264 264" fill="none" xmlns="http://www.w3.org/2000/svg">
<path d="M132 264C204.902 264 264 204.902 264 132C264 59.0984 204.902 0 132 0C59.0984 0 0 59.0984 0 132C0 204.902 59.0984 264 132 264Z" fill="#F6CC71"/>
<g clip-path="url(#clip0)">
<path d="M140.987 154.471L163.231 127.797C164.719 126.013 165.618 122.954 165.618 119.671V68.7873C165.618 66.4812 162.735 65.437 161.258 67.2079L140.987 91.5159C138.862 94.0647 136.431 95.3394 134 95.3394V158.295C136.431 158.295 138.862 157.02 140.987 154.471Z" fill="url(#paint0_linear)"/>
<path d="M119.444 90.6478L76.3751 62.7475C72.8236 60.4469 68.1348 62.996 68.1348 67.2275V122.332C68.1348 126.026 70.0065 129.468 73.1068 131.477L119.444 161.494C128.3 167.231 139.7 167.231 148.556 161.494L194.893 131.477C197.994 129.468 199.865 126.026 199.865 122.332V67.2278C199.865 62.996 195.177 60.4469 191.625 62.7478L148.556 90.6478C139.7 96.3845 128.3 96.3845 119.444 90.6478Z" fill="url(#paint1_linear)"/>
<path d="M120.747 99.7825L81.5317 74.3789C78.2979 72.2842 74.0288 74.6051 74.0288 78.458V128.631C74.0288 131.995 75.7329 135.129 78.5559 136.958L120.746 164.289C128.81 169.512 139.19 169.512 147.253 164.289L189.444 136.958C192.267 135.129 193.971 131.995 193.971 128.631V78.4583C193.971 74.6054 189.702 72.2842 186.468 74.3792L147.253 99.7827C139.19 105.006 128.81 105.006 120.747 99.7825Z" fill="url(#paint2_linear)"/>
<path d="M117.425 116.547L68.3829 84.7779C64.3388 82.1581 59 85.0608 59 89.8793V152.625C59 156.832 61.1312 160.752 64.6618 163.039L117.426 197.219C127.51 203.752 140.491 203.752 150.575 197.219L203.338 163.039C206.869 160.752 209 156.832 209 152.625V89.8793C209 85.0608 203.661 82.1581 199.617 84.7779L150.575 116.547C140.49 123.08 127.51 123.08 117.425 116.547Z" fill="#676A7A"/>
<path d="M150.575 197.219L203.338 163.039C206.869 160.752 209 156.832 209 152.625V89.8793C209 85.0608 203.661 82.1581 199.617 84.7779L150.575 116.548C145.532 119.814 139.766 121.447 134 121.447V202.118C139.766 202.118 145.532 200.485 150.575 197.219Z" fill="#676A7A"/>
<path d="M77.2221 139.837C83.1384 139.837 87.9345 135.041 87.9345 129.124C87.9345 123.208 83.1384 118.412 77.2221 118.412C71.3059 118.412 66.5098 123.208 66.5098 129.124C66.5098 135.041 71.3059 139.837 77.2221 139.837Z" fill="url(#paint3_linear)"/>
</g>
<defs>
<linearGradient id="paint0_linear" x1="124.613" y1="87.8291" x2="147.344" y2="110.561" gradientUnits="userSpaceOnUse">
<stop stop-color="#BCE097"/>
<stop offset="1" stop-color="#7DC03A"/>
</linearGradient>
<linearGradient id="paint1_linear" x1="92.6836" y1="54.6116" x2="160.987" y2="122.914" gradientUnits="userSpaceOnUse">
<stop stop-color="#BCE097"/>
<stop offset="1" stop-color="#7DC03A"/>
</linearGradient>
<linearGradient id="paint2_linear" x1="98.8288" y1="37.7736" x2="151.182" y2="136.597" gradientUnits="userSpaceOnUse">
<stop stop-color="#8CC951" stop-opacity="0"/>
<stop offset="1" stop-color="#3E6E66"/>
</linearGradient>
<linearGradient id="paint3_linear" x1="69.2321" y1="121.134" x2="82.6065" y2="134.509" gradientUnits="userSpaceOnUse">
<stop stop-color="#F7E07D"/>
<stop offset="0.2892" stop-color="#F3CF6F"/>
<stop offset="0.862" stop-color="#E9A24B"/>
<stop offset="1" stop-color="#E69642"/>
</linearGradient>
<clipPath id="clip0">
<rect width="150" height="150" fill="white" transform="translate(59 57)"/>
</clipPath>
</defs>
</svg>
