<svg width="264" height="264" viewBox="0 0 264 264" fill="none" xmlns="http://www.w3.org/2000/svg">
<path d="M132 264C204.902 264 264 204.902 264 132C264 59.0984 204.902 0 132 0C59.0984 0 0 59.0984 0 132C0 204.902 59.0984 264 132 264Z" fill="#676A7A"/>
<path d="M81.9219 124.625H141.938V67.2188H81.9219C66.0699 67.2188 53.2188 80.0699 53.2188 95.9219C53.2188 111.774 66.0699 124.625 81.9219 124.625Z" fill="#88929F"/>
<path d="M63.6562 129.844V118.062C68.6193 122.162 74.9835 124.625 81.9219 124.625H121.062V135.063H110.625L97.5781 176.813H61.0469L74.0938 140.281L63.6562 129.844Z" fill="#F5B95B"/>
<path d="M121.062 166.375H100.84L107.363 145.5H121.062L119.533 147.029C117.172 149.391 115.844 152.595 115.844 155.938C115.844 159.28 117.172 162.484 119.533 164.846L121.062 166.375Z" fill="#88929F"/>
<path d="M141.938 72.4375L157.594 77.6562V114.188L141.938 119.406V72.4375Z" fill="#F5B95B"/>
<path d="M168.031 82.875H157.594V108.969H168.031V82.875Z" fill="#88929F"/>
<path d="M178.469 114.188H168.031V77.6562H178.469L199.344 88.0938V103.75L178.469 114.188Z" fill="#F5B95B"/>
<path d="M212.391 88.0938H199.344V93.3125H212.391V88.0938Z" fill="#B8BEC5"/>
<path d="M212.391 98.5312H199.344V103.75H212.391V98.5312Z" fill="#B8BEC5"/>
<path d="M181.078 112.883L178.469 114.188H175.859V77.6562H178.469L181.078 78.9609V112.883Z" fill="#B8BEC5"/>
<path d="M79.3125 67.3496V124.495C64.6843 123.175 53.2188 110.895 53.2188 95.9223C53.2188 80.9497 64.6843 68.67 79.3125 67.3496Z" fill="#666E77"/>
<path d="M79.3125 77.8418C70.4615 79.1073 63.6562 86.7215 63.6562 95.9222C63.6562 105.123 70.4615 112.737 79.3125 114.003V77.8418Z" fill="#F5B95B"/>
<path d="M79.3125 98.5312H63.8598C63.7371 97.678 63.6562 96.8091 63.6562 95.9219C63.6562 95.0347 63.7371 94.1658 63.8598 93.3125H79.3125V98.5312Z" fill="#B8BEC5"/>
<path d="M79.3125 88.0938H65.4228C66.3517 86.1367 67.6173 84.3728 69.149 82.875H79.3125V88.0938Z" fill="#B8BEC5"/>
<path d="M79.3125 108.969H69.149C67.6199 107.471 66.3543 105.707 65.4228 103.75H79.3125V108.969Z" fill="#B8BEC5"/>
<path d="M131.5 106.359H115.844V116.797H131.5V106.359Z" fill="#F5B95B"/>
<path d="M131.5 67.2188H89.75V82.875H131.5V67.2188Z" fill="#F5B95B"/>
<path d="M105.406 176.812H53.2188V192.469H105.406V176.812Z" fill="#88929F"/>
<path d="M105.406 218.562H152.375V213.344H105.406C103.966 213.344 102.797 212.172 102.797 210.734C102.797 209.297 103.966 208.125 105.406 208.125H132.805C139.279 208.125 144.547 202.857 144.547 196.383C144.547 189.909 139.279 184.641 132.805 184.641H105.406V189.859H132.805C136.403 189.859 139.328 192.787 139.328 196.383C139.328 199.979 136.403 202.906 132.805 202.906H105.406C101.09 202.906 97.5781 206.418 97.5781 210.734C97.5781 215.05 101.09 218.562 105.406 218.562Z" fill="#B8BEC5"/>
<path d="M157.594 223.781H165.422V208.125H157.594C153.27 208.125 149.766 211.629 149.766 215.953C149.766 220.277 153.27 223.781 157.594 223.781Z" fill="#88929F"/>
<path d="M173.25 208.125H165.422V213.344H173.25V208.125Z" fill="#B8BEC5"/>
<path d="M173.25 218.562H165.422V223.781H173.25V218.562Z" fill="#B8BEC5"/>
</svg>
